<svg width="44" height="44" viewBox="0 0 44 44" fill="none" xmlns="http://www.w3.org/2000/svg">
<path d="M44 22C44 34.1 34.1 44 22 44C9.9 44 0 34.1 0 22C0 9.9 9.9 0 22 0C34.1 0 44 9.9 44 22Z" fill="black"/>
<path fill-rule="evenodd" clip-rule="evenodd" d="M24.6026 32.853L22.0468 34.328L22.0027 34.3513V34.9968L22.0493 34.9708L22.1116 34.9345L27.6277 31.7488L30.0954 30.3257L32.6927 28.8248L33.25 28.5008V15.5141L32.6927 15.1927L30.0954 13.6944L27.6277 12.2662L22.1919 9.12964L22.1141 9.08558L22.0027 9.00781V9.66363L22.1815 9.76731L24.6026 11.1645V18.9695L26.6271 17.7667L28.4909 16.6624L30.0954 15.7111L30.6631 15.3741L31.2022 15.0605L32.6927 15.9781V17.1912L30.6631 18.3966L30.0954 18.7336L29.0663 19.3427L24.6026 22.0101L29.0663 24.6748L30.0954 25.284L30.6631 25.6209L32.6927 26.8263V28.055L31.1063 28.913L30.6631 28.6434L30.0954 28.3064L28.4909 27.3551L26.6271 26.2508L24.6026 25.0507V32.853Z" fill="url(#paint0_linear)"/>
<path fill-rule="evenodd" clip-rule="evenodd" d="M19.4104 13.5026V19.4049H22.0103V9L16.3802 12.2506L10.75 15.5037V23.3035H19.4104V30.5019L13.3499 27.0025V24.6022H10.75V28.5008L16.3802 31.7539L22.0103 35.0045V20.701H13.3499V17.002L19.4104 13.5026Z" fill="url(#paint1_linear)"/>
<defs>
<linearGradient id="paint0_linear" x1="27.6264" y1="9.00781" x2="27.6264" y2="34.9968" gradientUnits="userSpaceOnUse">
<stop stop-color="#9EE1EC"/>
<stop offset="1" stop-color="#E5A7E0"/>
</linearGradient>
<linearGradient id="paint1_linear" x1="16.3802" y1="9" x2="16.3802" y2="35.0045" gradientUnits="userSpaceOnUse">
<stop stop-color="#9EE1EC"/>
<stop offset="1" stop-color="#E5A7E0"/>
</linearGradient>
</defs>
</svg>
